<svg id="wordle" version="1.2" xmlns="http://www.w3.org/2000/svg" viewBox="0 0 500 500" width="500" height="500">
	<title>Wordle</title>
	<path class="s0" aria-label="wordle"  d="m72.7 216.9q0 6 6.1 21.3l10 25.3 13.4-43.9q-3.1-8.5-10.7-8.5l-0.2-1.6h30l-0.3 1.6q-4.5 0-6.3 1.4-1.7 1.4-1.7 4.9 0 3.5 6.1 20.8l8.7 25.3 10.1-31.2q3-9.4 3-14.2 0-7-9.1-7l-0.2-1.6h24.4l-0.3 1.6q-5.3 0-7.5 3.5-2.1 3.4-7.9 21.2l-11.7 35.6h-7.7l-17-46.9-14.3 46.9h-7.7l-16.9-43.2q-4.3-10.9-7.8-14-3.4-3.1-8.2-3.1l-0.3-1.6h32.3l-0.3 1.6q-4.5 0-6.3 1.4-1.7 1.4-1.7 4.4zm87.2 23.4q0-13.6 7.8-22.9 7.8-9.2 21.2-9.2 13.4 0 21.6 9.2 8.2 9.3 8.2 22.9 0 13.7-8 22.9-7.8 9.1-21.2 9.1-13.3 0-21.5-9.2-8.1-9.3-8.1-22.8zm15 21.1q5.2 8.3 14.6 8.3 9.5 0 14.3-8.2 5-8.2 5-21.1 0-13-5.2-21.3-5.2-8.3-14.7-8.3-9.4 0-14.3 8.3-4.8 8.2-4.8 21.1 0 12.9 5.1 21.2zm94.2-53.8q3.3 0 5.7 1.4 2.5 1.4 2.5 3.9 0 2.5-1.6 3.9-1.5 1.4-3.5 1.4-1.9 0-4.9-1.7-2.9-1.7-6.1-1.7-5.1 0-8.3 9.4-3.2 9.4-3.2 21.7 0 16.7 1.7 20.2 0.5 1.1 2 2.2 1.4 0.9 3 1 1.5 0.1 4.4 0.1l0.2 1.6h-31.5l0.2-1.6q4.2 0 6-0.3 1.9-0.6 3.2-3.3 1.3-2.7 1.5-6.8 0.2-4.1 0.2-13.1v-7.5q0-18.1-1-20.6-0.9-2.4-1.7-3.9-0.8-1.4-2.3-1.9-2.9-0.8-7.6-0.8l-0.2-1.4q11-1.6 21.9-1.6v19.1q1.5-9.2 6.4-14.4 5.1-5.3 13-5.3zm56 49q-2 6.7-7.1 11.3-5 4.4-12.2 4.4-7.2 0-12-2.9-4.8-2.8-7.4-7.5-5.2-9-5.2-21.8 0-12.9 8.8-22.4 8.9-9.5 23.7-9.5 6.5 0 11.8 1.6v-12.4q0-9.7-0.6-13.1-0.7-3.5-2.1-4.3-2.6-1.6-8.2-1.6l-0.3-1.4q9.4-1.6 20.3-1.6v66.7q0 14.5 0.9 19 0.9 4.4 4.4 4.4 2.3 0 5.9-1.8l0.7 1.3q-1.1 0.8-2.8 2-1.7 1-6.9 2.8-5.2 1.8-10 1.8-1.7-7-1.7-15zm-30.9 2.2q1.5 4.3 4.8 6.9 3.4 2.6 8.1 2.6 4.8 0 8.5-3.3 3.9-3.2 5.9-8.3 4-9.8 4-20.2v-19.8q-5.6-4.5-12.2-4.5-6.6 0-11.1 2.9-4.4 2.9-6.7 7.5-4.4 8.7-4.4 18.6 0 9.5 3.1 17.6zm78.6-83.5v73.1q0 14.4 1.7 17.8 1.7 3.2 9.4 3.2l0.3 1.6h-31.9l0.3-1.6q7.8 0 9.5-3.2 1.6-3.3 1.6-17.8v-49.7q0-14.4-1.5-17.4-0.5-0.9-2-1.8-1.4-0.9-3.1-1.1-1.5-0.1-4.5-0.1l-0.3-1.4q9.8-1.6 20.5-1.6zm73 62.8h-42.7v2.2q0 13.8 5.9 21.1 5.8 7.1 14.5 7.1 13 0 18.8-10.4l1.9 1.1q-6.8 13.1-22.6 13.1-11.7 0-20-8.4-8.4-8.5-8.4-22.8 0-14.4 7.3-23.7 7.4-9.2 19.7-9.2 12.3 0 18.9 8.5 6.7 8.3 6.7 21.4zm-25.2-27.3q-7.6 0-12 6.5-4.3 6.4-5.2 17h32.4q-0.9-23.5-15.2-23.5z"/>
</svg>
