<!DOCTYPE svg PUBLIC "-//W3C//DTD SVG 1.1//EN" "http://www.w3.org/Graphics/SVG/1.1/DTD/svg11.dtd">
<!-- Uploaded to: SVG Repo, www.svgrepo.com, Transformed by: SVG Repo Mixer Tools -->
<svg height="256px" width="256px" version="1.1" id="Layer_1" xmlns="http://www.w3.org/2000/svg" xmlns:xlink="http://www.w3.org/1999/xlink" viewBox="-51.2 -51.2 614.40 614.40" xml:space="preserve" fill="#000000">
<g id="SVGRepo_bgCarrier" stroke-width="0">
<rect x="-51.2" y="-51.2" width="614.40" height="614.40" rx="307.2" fill="#ffffff" strokewidth="0"/>
</g>
<g id="SVGRepo_tracerCarrier" stroke-linecap="round" stroke-linejoin="round"/>
<g id="SVGRepo_iconCarrier"> <path style="fill:#8fd28e;" d="M486.881,392.818H25.119c-9.446,0-17.102-7.656-17.102-17.102V136.284 c0-9.446,7.656-17.102,17.102-17.102h461.762c9.446,0,17.102,7.656,17.102,17.102v239.432 C503.983,385.162,496.327,392.818,486.881,392.818z"/> <path d="M486.881,111.165H25.119C11.268,111.165,0,122.433,0,136.284v239.432c0,13.851,11.268,25.119,25.119,25.119h461.762 c13.851,0,25.119-11.268,25.119-25.119V136.284C512,122.433,500.732,111.165,486.881,111.165z M495.967,375.716 c0,5.01-4.076,9.086-9.086,9.086H25.119c-5.01,0-9.086-4.076-9.086-9.086V136.284c0-5.01,4.076-9.086,9.086-9.086h461.762 c5.01,0,9.086,4.076,9.086,9.086V375.716z"/> <path d="M135.749,259.207c0-21.354-18.87-29.654-34.205-34.718V187.78c11.014,2.054,18.171,8.139,18.171,13.706 c0,4.427,3.589,8.017,8.017,8.017c4.427,0,8.017-3.589,8.017-8.017c0-15.098-14.492-27.298-34.205-29.93v-9.619 c0-4.427-3.589-8.017-8.017-8.017c-4.427,0-8.017,3.589-8.017,8.017v9.619c-19.713,2.632-34.205,14.831-34.205,29.93 c0,21.354,18.87,29.654,34.205,34.718v36.709c-11.014-2.054-18.171-8.139-18.171-13.706c0-4.427-3.589-8.017-8.017-8.017 s-8.017,3.589-8.017,8.017c0,15.098,14.492,27.298,34.205,29.93v9.619c0,4.427,3.589,8.017,8.017,8.017 c4.427,0,8.017-3.589,8.017-8.017v-9.619C121.257,286.505,135.749,274.305,135.749,259.207z M119.716,259.207 c0,5.567-7.157,11.652-18.171,13.706v-31.358C115.222,246.774,119.716,251.495,119.716,259.207z M67.34,201.486 c0-5.567,7.157-11.652,18.171-13.706v31.358C71.834,213.919,67.34,209.199,67.34,201.486z"/> <path d="M170.489,178.505h136.818c4.427,0,8.017-3.589,8.017-8.017s-3.589-8.017-8.017-8.017H170.489 c-4.427,0-8.017,3.589-8.017,8.017S166.061,178.505,170.489,178.505z"/> <path d="M444.125,178.505h17.102c4.427,0,8.017-3.589,8.017-8.017s-3.589-8.017-8.017-8.017h-17.102 c-4.427,0-8.017,3.589-8.017,8.017S439.698,178.505,444.125,178.505z"/> <path d="M392.818,178.505h17.102c4.427,0,8.017-3.589,8.017-8.017s-3.589-8.017-8.017-8.017h-17.102 c-4.427,0-8.017,3.589-8.017,8.017S388.391,178.505,392.818,178.505z"/> <path d="M264.017,238.898c0-4.427-3.589-8.017-8.017-8.017h-85.511c-4.427,0-8.017,3.589-8.017,8.017s3.589,8.017,8.017,8.017H256 C260.427,246.914,264.017,243.325,264.017,238.898z"/> <path d="M324.409,196.676H170.489c-4.427,0-8.017,3.589-8.017,8.017s3.589,8.017,8.017,8.017h153.921 c4.427,0,8.017-3.589,8.017-8.017S328.837,196.676,324.409,196.676z"/> <path d="M375.716,246.914h85.511c4.427,0,8.017-3.589,8.017-8.017s-3.589-8.017-8.017-8.017h-85.511 c-4.427,0-8.017,3.589-8.017,8.017S371.289,246.914,375.716,246.914z"/> <path d="M427.023,212.71h34.205c4.427,0,8.017-3.589,8.017-8.017s-3.589-8.017-8.017-8.017h-34.205 c-4.427,0-8.017,3.589-8.017,8.017S422.596,212.71,427.023,212.71z"/> <path d="M93.528,342.046H59.324c-4.427,0-8.017,3.589-8.017,8.017c0,4.427,3.589,8.017,8.017,8.017h34.205 c4.427,0,8.017-3.589,8.017-8.017C101.545,345.635,97.956,342.046,93.528,342.046z"/> <path d="M298.756,342.046h-68.409c-4.427,0-8.017,3.589-8.017,8.017c0,4.427,3.589,8.017,8.017,8.017h68.409 c4.427,0,8.017-3.589,8.017-8.017C306.772,345.635,303.183,342.046,298.756,342.046z"/> <path d="M144.835,342.046h-17.102c-4.427,0-8.017,3.589-8.017,8.017c0,4.427,3.589,8.017,8.017,8.017h17.102 c4.427,0,8.017-3.589,8.017-8.017C152.852,345.635,149.262,342.046,144.835,342.046z"/> <path d="M196.142,342.046H179.04c-4.427,0-8.017,3.589-8.017,8.017c0,4.427,3.589,8.017,8.017,8.017h17.102 c4.427,0,8.017-3.589,8.017-8.017C204.159,345.635,200.569,342.046,196.142,342.046z"/> <path d="M456.096,292.597l-45.682,38.069l-20.477-20.477c-3.131-3.131-8.207-3.131-11.337,0l-20.521,20.521v-31.954 c0-4.427-3.589-8.017-8.017-8.017c-4.427,0-8.017,3.589-8.017,8.017v51.307c0,3.243,1.953,6.165,4.949,7.406 c0.992,0.41,2.033,0.61,3.067,0.61c2.086,0,4.137-0.814,5.67-2.348l28.536-28.536l19.985,19.985c2.932,2.932,7.616,3.144,10.8,0.49 l51.307-42.756c3.401-2.835,3.861-7.89,1.026-11.291C464.552,290.222,459.496,289.762,456.096,292.597z"/> </g>
</svg>